<svg xmlns="http://www.w3.org/2000/svg" width="1163.269" height="738.256" viewBox="0 0 1163.269 738.256">
  <g id="Group_9" data-name="Group 9" transform="translate(-411.731 -170.872)">
    <path id="Path_2" data-name="Path 2" d="M751.544,109.372s1.318,7.555,4.391,19.465a374.034,374.034,0,0,0,14.975,45.751c7.072,17.544,16.365,36.269,28.313,52.9,11.979,16.674,26.616,31.229,44.32,40.34,17.723,9.121,40.544,12.518,64.785,12.478,24.224-.04,49.835-3.511,73.191-8.115,23.323-4.6,44.392-10.325,59.616-14.9,15.206-4.567,24.593-7.987,24.593-7.987s-5.288,4.552-13.145,12.226a395.961,395.961,0,0,0-28.641,31.046c-10.34,12.565-20.543,26.854-27.851,41.413-7.328,14.6-11.744,29.469-10.459,43.131,1.287,13.694,6.458,28.293,13.5,42.5a289.589,289.589,0,0,0,24.795,40.238c8.809,12.168,17.465,22.619,23.923,30.032s10.721,11.792,10.721,11.792-4.187.313-10.966,1.292a254.4,254.4,0,0,0-26.542,5.289,187.594,187.594,0,0,0-32.6,11.42c-10.827,5.071-21.073,11.525-29.137,19.72s-12.3,21.307-14.1,36.364c-1.8,15.1-1.154,32.172.511,48.255,1.669,16.126,4.363,31.248,6.642,42.352,2.284,11.124,4.149,18.2,4.149,18.2s-6.6-7.995-17.715-19.817a561.115,561.115,0,0,0-44.64-42.676c-17.936-15.237-38.268-30.144-58.962-40.635-20.669-10.478-41.732-16.568-61.2-14.2-19.49,2.374-36.371,9.871-50.746,19.8-14.4,9.948-26.3,22.342-35.778,34.464a225.311,225.311,0,0,0-21.239,32.873c-4.694,8.862-7.006,14.676-7.006,14.676a160.561,160.561,0,0,0-7.564-15.363,235.015,235.015,0,0,0-23.6-35.006,196.834,196.834,0,0,0-40.974-38.154,157.494,157.494,0,0,0-59.858-25.138c-23.3-4.434-45.859-2-66.627,4.153-20.8,6.163-39.826,16.065-55.969,26.546a300.273,300.273,0,0,0-38.713,30.059c-9.265,8.484-14.472,14.334-14.472,14.334s.633-7.406.45-19.1a265.4,265.4,0,0,0-4.421-44.681c-3.235-17.035-8.706-35.216-17.842-51.493-9.114-16.237-21.882-30.594-39.749-40.068-17.847-9.463-39.888-12.023-62.934-10.542-23.067,1.482-47.174,7.013-69.093,13.739a528.656,528.656,0,0,0-56.016,20.938c-14.313,6.271-23.123,10.854-23.123,10.854s6.238-6.841,15.232-17.77c8.975-10.907,20.682-25.868,31.661-42.148,10.945-16.23,21.163-33.764,27.242-49.913,6.062-16.1,8.013-30.839,2.474-41.568-5.53-10.711-14.318-20.675-24.384-29.595a231.287,231.287,0,0,0-32.02-23.31c-10.627-6.527-20.565-11.721-27.844-15.283s-11.9-5.491-11.9-5.491,4.984-.107,13-.762,19.062-1.857,31.186-4.048A221.813,221.813,0,0,0,141,270.3c12.3-4.593,23.712-10.6,32.305-18.468S184.663,230.437,184,214.574c-.657-15.82-4.727-33.94-9.85-51.039-5.108-17.05-11.265-33.093-16.137-44.857-4.863-11.742-8.454-19.239-8.454-19.239s7.2,6,19.2,14.88,28.868,20.674,48.141,32.211c19.3,11.555,41.031,22.86,62.745,30.75,21.731,7.9,43.42,12.36,62.589,10.22,19.152-2.137,36.126-11.633,50.789-24.645,14.623-12.977,26.931-29.438,36.826-45.585a338.2,338.2,0,0,0,22.332-43.629c4.986-11.719,7.519-19.432,7.519-19.432s1.923,7.643,6.209,19.391a285.889,285.889,0,0,0,20.464,44.157c9.521,16.523,21.881,33.622,37.508,47.676,15.659,14.082,34.58,25.089,57.15,29.362s44.6,1.018,64.9-6.259c20.268-7.264,38.8-18.525,54.474-30.289a308.89,308.89,0,0,0,37.306-33.258C746.58,115.719,751.544,109.372,751.544,109.372Z" transform="translate(411.731 170.872)" fill="#fcd047"/>
    <path id="Path_1" data-name="Path 1" d="M618.556,20.411S655.038,135.048,725.488,159.2s205-50.9,205-50.9S859.3,190.9,870.26,241.4,951,346.4,951,346.4s-60.828,14.226-86.539,48.689,13.6,130.938,13.6,130.938-109.18-99.005-178.431-79.467-90.018,106.878-90.018,106.878-47.693-80-134.032-82.846S329.7,561.846,329.7,561.846s-9.445-105.983-79.894-130.131S66.759,492.83,66.759,492.83,136.2,381,108.548,344.779,7.971,290.612,7.971,290.612s72.074-13.159,97.785-47.622S56.038,101.937,56.038,101.937s124.295,74.941,193.546,55.4S336.612,11.107,336.612,11.107s48.72,114.726,135.059,117.575S618.556,20.411,618.556,20.411Z" transform="translate(531.943 182.122) rotate(9)" fill="#e22738"/>
    <path id="Path_1_-_Outline" data-name="Path 1 - Outline" d="M342.213,51.188c-11.57,41.905-37.229,105.067-88.828,119.626a109.663,109.663,0,0,1-29.682,3.776c-42.271,0-92.471-19.282-128.246-36.118,20.631,37.261,40.941,86.859,21.52,112.891-14.2,19.038-39.692,32.085-62.183,40.473,23.029,9.758,49.618,24.453,64.882,44.45,20.1,26.339,3.507,76.646-14.627,115.258,32.479-18.3,76.9-38.136,116.894-38.136a99.843,99.843,0,0,1,32.407,5.064c52.382,17.955,74.475,73.587,83.475,109.735,25.174-29.018,72.611-71.678,133.917-71.678,1.427,0,2.866.024,4.306.071,63.234,2.087,106.856,41.225,128.938,67.133,12.474-29.9,39.508-76.162,90.849-90.647a85.926,85.926,0,0,1,23.319-3.079c44.933,0,96.838,31.1,131.02,55.848-8.589-33.077-14.435-75.676,3.068-99.138,17.407-23.333,47.928-38.078,69.6-46.152-22.754-21.086-58.17-58.884-66.267-96.191-6.709-30.913,11.126-69.456,29.659-99.182-36.406,15.592-86.129,32.794-128.294,32.794-13.815,0-26.262-1.865-37-5.545-54.558-18.7-89.492-83.784-105.527-121.1-24.009,33.966-74.383,91.4-140.485,91.4-1.236,0-2.483-.02-3.728-.061-62.575-2.065-106.163-54.831-129-91.487m-5.6-40.08s48.72,114.726,135.059,117.575S618.556,20.411,618.556,20.411,655.038,135.048,725.488,159.2s205-50.9,205-50.9S859.3,190.9,870.26,241.4,951,346.4,951,346.4s-60.828,14.226-86.539,48.689,13.6,130.938,13.6,130.938-109.18-99.005-178.431-79.467-90.018,106.878-90.018,106.878-47.693-80-134.032-82.846S329.7,561.846,329.7,561.846s-9.445-105.983-79.894-130.131S66.759,492.83,66.759,492.83,136.2,381,108.548,344.779,7.971,290.612,7.971,290.612s72.074-13.159,97.785-47.622S56.038,101.936,56.038,101.936s124.295,74.941,193.546,55.4S336.612,11.108,336.612,11.108Z" transform="translate(531.943 182.122) rotate(9)" fill="#221e1f"/>
    <g id="Group_7" data-name="Group 7" transform="translate(18)">
      <text id="N" transform="translate(1315 667)" fill="#221e1f" font-size="390" font-family="SFComicScriptCondensed, SF Comic Script Condensed"><tspan x="0" y="0">N</tspan></text>
      <text id="N-2" data-name="N" transform="translate(1343 656)" fill="#fcd047" font-size="320" font-family="SFComicScriptCondensed, SF Comic Script Condensed"><tspan x="0" y="0">N</tspan></text>
    </g>
    <g id="Group_3" data-name="Group 3" transform="translate(16)">
      <text id="Y" transform="translate(418 667)" fill="#221e1f" font-size="390" font-family="SFComicScriptCondensed, SF Comic Script Condensed"><tspan x="0" y="0">Y</tspan></text>
      <text id="Y-2" data-name="Y" transform="translate(439 650)" fill="#fcd047" font-size="320" font-family="SFComicScriptCondensed, SF Comic Script Condensed"><tspan x="0" y="0">Y</tspan></text>
    </g>
    <g id="Group_4" data-name="Group 4">
      <text id="O" transform="translate(555 667)" fill="#221e1f" font-size="390" font-family="SFComicScriptCondensed, SF Comic Script Condensed"><tspan x="0" y="0">O</tspan></text>
      <text id="O-2" data-name="O" transform="translate(583 656)" fill="#fcd047" font-size="320" font-family="SFComicScriptCondensed, SF Comic Script Condensed"><tspan x="0" y="0">O</tspan></text>
    </g>
    <g id="Group_5" data-name="Group 5" transform="translate(-9)">
      <text id="U" transform="translate(738 667)" fill="#221e1f" font-size="390" font-family="SFComicScriptCondensed, SF Comic Script Condensed"><tspan x="0" y="0">U</tspan></text>
      <text id="U-2" data-name="U" transform="translate(766 656)" fill="#fcd047" font-size="320" font-family="SFComicScriptCondensed, SF Comic Script Condensed"><tspan x="0" y="0">U</tspan></text>
    </g>
    <g id="Group_6" data-name="Group 6" transform="translate(18)">
      <text id="W" transform="translate(960 667)" fill="#221e1f" font-size="390" font-family="SFComicScriptCondensed, SF Comic Script Condensed"><tspan x="0" y="0">W</tspan></text>
      <text id="W-2" data-name="W" transform="translate(988 656)" fill="#fcd047" font-size="320" font-family="SFComicScriptCondensed, SF Comic Script Condensed"><tspan x="0" y="0">W</tspan></text>
    </g>
    <g id="Group_8" data-name="Group 8" transform="translate(18)">
      <text id="I" transform="translate(1192 667)" fill="#221e1f" font-size="390" font-family="SFComicScriptCondensed, SF Comic Script Condensed"><tspan x="0" y="0">I</tspan></text>
      <text id="I-2" data-name="I" transform="translate(1220 656)" fill="#fcd047" font-size="320" font-family="SFComicScriptCondensed, SF Comic Script Condensed"><tspan x="0" y="0">I</tspan></text>
    </g>
  </g>
</svg>
